<?xml version="1.0" standalone="no"?>
<!DOCTYPE svg PUBLIC "-//W3C//DTD SVG 20010904//EN"
 "http://www.w3.org/TR/2001/REC-SVG-20010904/DTD/svg10.dtd">
<svg version="1.0" xmlns="http://www.w3.org/2000/svg"
 width="500.000000pt" height="500.000000pt" viewBox="0 0 500.000000 500.000000"
 preserveAspectRatio="xMidYMid meet">
<metadata>
Created by potrace 1.16, written by Peter Selinger 2001-2019
</metadata>
<g transform="translate(0.000000,500.000000) scale(0.100000,-0.100000)"
fill="#000000" stroke="none">
<path d="M0 2500 l0 -2500 2500 0 2500 0 0 2500 0 2500 -2500 0 -2500 0 0
-2500z m4110 805 l0 -1205 -785 0 -785 0 0 -420 0 -420 -840 0 -840 0 0 840 0
840 420 0 420 0 0 785 0 785 1205 0 1205 0 0 -1205z m-2793 -2317 c21 -20 23
-30 23 -127 l0 -105 -40 -41 -40 -41 40 -39 40 -39 0 -128 0 -128 -45 0 -45 0
0 112 0 112 -32 33 -32 33 -113 0 -113 0 0 -145 0 -145 -45 0 -45 0 0 335 0
335 212 0 c204 0 213 -1 235 -22z m603 -313 l0 -335 -45 0 -45 0 0 145 0 145
-150 0 -150 0 0 -145 0 -145 -40 0 -40 0 0 335 0 335 235 0 235 0 0 -335z
m517 273 l63 -62 0 -273 0 -273 -45 0 -45 0 0 252 0 252 -37 38 -37 38 -113 0
-113 0 0 -290 0 -290 -45 0 -45 0 0 335 0 335 177 0 177 0 63 -62z m633 17 l0
-45 -95 0 -95 0 0 -290 0 -290 -45 0 -45 0 0 290 0 290 -95 0 -95 0 0 45 0 45
235 0 235 0 0 -45z m200 -212 l0 -257 32 -33 c30 -31 35 -33 106 -33 67 0 76
3 113 32 l39 31 0 259 0 258 45 0 45 0 0 -272 0 -272 -62 -63 -62 -63 -110 0
-110 0 -63 62 -63 62 0 273 0 273 45 0 45 0 0 -257z m897 195 l63 -62 0 -273
0 -273 -45 0 -45 0 0 257 0 257 -32 33 c-18 18 -40 33 -50 33 -17 0 -18 -17
-18 -290 l0 -290 -45 0 -45 0 0 290 0 290 -55 0 -55 0 0 -290 0 -290 -40 0
-40 0 0 335 0 335 172 0 172 0 63 -62z"/>
<path d="M2050 3138 l0 -918 130 0 130 0 2 393 3 392 300 -3 300 -4 87 -86 88
-86 2 -306 3 -305 133 -3 132 -3 0 358 0 358 -105 105 -105 105 105 105 105
105 0 290 0 291 -62 61 -63 62 -593 3 -592 3 0 -917z m1040 485 l-1 -168 -93
-98 -93 -97 -294 2 -294 3 -3 263 -2 262 390 0 390 0 0 -167z"/>
<path d="M960 820 l0 -100 113 0 113 0 32 33 c30 30 32 38 32 100 l0 67 -145
0 -145 0 0 -100z"/>
<path d="M1530 820 l0 -100 150 0 150 0 0 100 0 100 -150 0 -150 0 0 -100z"/>
</g>
</svg>
